<?xml version="1.0" encoding="UTF-8"?>
<svg xmlns="http://www.w3.org/2000/svg" width="750" height="750" version="1.1" viewBox="0 0 750 750">
  <g id="FILL-BACKGROUND">
    <rect width="750" height="750" fill="#fff" stroke-width="0"/>
  </g>
  <g id="AG-TRANSPORT">
    <g>
      <path d="M603.906,386.154l46.802-54.254-38.016-.073h0s-19.04,22.045-19.04,22.045M562.162,390.332l-27.379,31.7h38.172l27.346-31.7M666.483,331.827l-77.909,90.205h38.172l77.752-90.132-38.016-.073h0Z" fill="none" fill-rule="evenodd" stroke="#f368e0" stroke-linecap="round" stroke-linejoin="round" stroke-width="3.5"/>
      <path d="M219.162,353.511c-11.063-.033-49.887.945-49.887,18.699,0,12.492,18.163,16.09,33.158,17.707,10.615,1.145,19.613,1.09,19.613,1.09,0,0,8.435.336,18.653-.242,15.853-.902,36.034-4.474,36.034-18.559,0-18.597-52.695-18.663-54.724-18.663-.253,0-1.267-.026-2.847-.031ZM114.939,354.03l-51.478.02s-2.412-.207-3.849.917c-1.342,1.048-1.355,3.413-1.355,3.413l-.382,27.956c0,4.331,4.914,3.989,4.914,3.989l53.944-.042s17.73.441,29.823-3.656c7.926-2.683,12.002-7.827,12.002-14.361,0-7.311-7.043-12.359-16.586-15.008-11.989-3.325-27.036-3.228-27.036-3.228h.001ZM344.444,354.03l-51.459.02s-2.414-.207-3.851.917c-1.343,1.048-1.353,3.413-1.353,3.413l-.389,27.956c0,4.331,4.915,3.989,4.915,3.989l53.962-.042s17.704.441,29.802-3.656c7.926-2.683,12.02-7.827,12.02-14.361,0-7.311-7.04-12.359-16.609-15.008-11.968-3.325-27.039-3.228-27.039-3.228ZM498.462,354.071c-.469,0-59.709.046-59.709.046,0,0-4.433-.025-10.325.504-11.811,1.058-29.542,4.661-29.542,17.588,0,6.015,3.259,10.276,8.891,12.967,12.255,5.543,33.583,5.129,33.583,5.129h53.295c4.667,0,5.137-2.759,5.137-4.62s.13-9.233.13-13.475-4.589-3.88-4.589-3.88h-47.428c-2.086,0-2.086,1.697-2.086,1.697,0,0-.104,2.185-.104,4.125s1.982,1.893,1.982,1.893h27.352c1.799,0,2.008,1.452,2.008,1.452v3.285c0,1.69-1.799,1.802-1.799,1.802h-31.393c-4.85,0-21.85,0-21.85-10.375s20.077-10.469,20.077-10.469h56.085c2.268,0,1.956-2.73,1.956-2.73v-3.417c0-1.485-1.199-1.523-1.669-1.523h0ZM516.871,354.096c-4.198,0-5.554.685-5.684,4.562-.104,3.066-.443,22.223-.443,26.655s2.451,4.991,5.371,4.991h85.94c1.929,0,1.851-1.497,1.851-1.838v-4.268c0-1.624-2.373-1.614-2.373-1.614h-65.002c-2.529,0-2.451-1.57-2.451-1.57,0,0,.026-1.486.026-3.147s1.512-1.924,2.242-1.924h61.169c1.799,0,1.773-1.69,1.773-1.69v-4.227c0-1.828-2.216-1.757-2.216-1.757h-60.935c-2.034,0-2.06-2.062-2.06-2.062l.052-2.302c0-1.997,2.008-2.164,2.008-2.164h64.455c1.903,0,2.164-1.374,2.164-2.73v-3.417c0-1.645-2.268-1.497-2.268-1.497h-83.619ZM222.184,361.211c5.387,0,31.432.469,31.432,11.126.029,11.449-24.303,10.787-31.432,10.787s-29.607-.438-29.607-10.787c0-11.452,24.217-11.126,29.607-11.126ZM115.419,361.741s7.238.279,12.771,2.378c4.336,1.645,7.264,4.612,7.264,8.106,0,2.941-1.906,5.906-5.353,7.486-5.895,2.699-14.708,2.863-14.708,2.863l-33.213.021s-1.874.047-1.874-1.692c0,0,.295-17.201.295-17.425,0-.227-.022-1.716,1.959-1.716,2.279,0,32.858-.021,32.858-.021ZM344.926,361.741s7.249.279,12.776,2.378c4.354,1.645,7.275,4.612,7.275,8.106,0,2.941-1.903,5.906-5.371,7.486-5.893,2.699-14.706,2.863-14.706,2.863l-33.205.021s-1.867.047-1.867-1.692c0,0,.289-17.201.289-17.425,0-.227-.021-1.716,1.961-1.716,2.276,0,32.848-.021,32.848-.021Z" fill="none" fill-rule="evenodd" stroke="#f368e0" stroke-linecap="round" stroke-linejoin="round" stroke-width="3.5"/>
    </g>
  </g>
  <metadata>
    <sfw xmlns="http://ns.adobe.com/SaveForWeb/1.0/">
      <slices/>
      <sliceSourceBounds x="-1202.51" y="-8280" width="3815.51" height="13500" bottomLeftOrigin="true"/>
    </sfw>
  </metadata>
</svg>