<?xml version="1.0" encoding="UTF-8"?><svg xmlns="http://www.w3.org/2000/svg" width="4in" height="4in" viewBox="0 0 101.6 101.6" shape-rendering="geometricPrecision"><title>dodge-ujoybio-petg-basic-cobalt-blue</title><desc>Single-color layer export for Ujoybio PETG Basic Cobalt blue (#4557BF).</desc><rect x="0" y="99.6000" width="2" height="2" fill="#4557BF"/><rect x="82.8000" y="44.8000" width="5.6000" height="0.2000" fill="#000000"/><rect x="90.0000" y="44.8000" width="5.6000" height="0.2000" fill="#000000"/><rect x="82.6000" y="45.0000" width="5.6000" height="0.2000" fill="#000000"/><rect x="89.8000" y="45.0000" width="5.8000" height="0.2000" fill="#000000"/><rect x="82.4000" y="45.2000" width="0.6000" height="0.2000" fill="#000000"/><rect x="87.6000" y="45.2000" width="0.6000" height="0.2000" fill="#000000"/><rect x="89.6000" y="45.2000" width="0.6000" height="0.4000" fill="#000000"/><rect x="94.8000" y="45.2000" width="0.6000" height="0.2000" fill="#000000"/><rect x="82.2000" y="45.4000" width="0.6000" height="0.2000" fill="#000000"/><rect x="87.4000" y="45.4000" width="0.6000" height="0.2000" fill="#000000"/><rect x="94.6000" y="45.4000" width="0.6000" height="0.2000" fill="#000000"/><rect x="82.0000" y="45.6000" width="0.6000" height="0.2000" fill="#000000"/><rect x="87.2000" y="45.6000" width="0.6000" height="0.2000" fill="#000000"/><rect x="89.4000" y="45.6000" width="0.6000" height="0.2000" fill="#000000"/><rect x="94.4000" y="45.6000" width="0.6000" height="0.4000" fill="#000000"/><rect x="81.8000" y="45.8000" width="0.6000" height="0.4000" fill="#000000"/><rect x="87.0000" y="45.8000" width="0.6000" height="0.2000" fill="#000000"/><rect x="89.2000" y="45.8000" width="0.6000" height="0.2000" fill="#000000"/><rect x="86.8000" y="46.0000" width="0.6000" height="0.2000" fill="#000000"/><rect x="89.0000" y="46.0000" width="0.6000" height="0.2000" fill="#000000"/><rect x="94.2000" y="46.0000" width="0.6000" height="0.2000" fill="#000000"/><rect x="81.6000" y="46.2000" width="0.6000" height="0.2000" fill="#000000"/><rect x="86.6000" y="46.2000" width="0.6000" height="0.4000" fill="#000000"/><rect x="88.8000" y="46.2000" width="0.6000" height="0.2000" fill="#000000"/><rect x="94.0000" y="46.2000" width="0.6000" height="0.2000" fill="#000000"/><rect x="81.4000" y="46.4000" width="0.6000" height="0.2000" fill="#000000"/><rect x="88.6000" y="46.4000" width="0.6000" height="0.2000" fill="#000000"/><rect x="93.8000" y="46.4000" width="0.6000" height="0.2000" fill="#000000"/><rect x="81.2000" y="46.6000" width="0.6000" height="0.2000" fill="#000000"/><rect x="86.4000" y="46.6000" width="0.6000" height="0.2000" fill="#000000"/><rect x="88.4000" y="46.6000" width="0.6000" height="0.4000" fill="#000000"/><rect x="93.6000" y="46.6000" width="0.6000" height="0.2000" fill="#000000"/><rect x="81.0000" y="46.8000" width="0.6000" height="0.2000" fill="#000000"/><rect x="86.2000" y="46.8000" width="0.6000" height="0.2000" fill="#000000"/><rect x="93.4000" y="46.8000" width="0.6000" height="0.2000" fill="#000000"/><rect x="80.8000" y="47.0000" width="0.6000" height="0.2000" fill="#000000"/><rect x="86.0000" y="47.0000" width="0.6000" height="0.2000" fill="#000000"/><rect x="88.2000" y="47.0000" width="0.6000" height="0.2000" fill="#000000"/><rect x="93.2000" y="47.0000" width="0.6000" height="0.4000" fill="#000000"/><rect x="80.6000" y="47.2000" width="0.6000" height="0.2000" fill="#000000"/><rect x="85.8000" y="47.2000" width="0.6000" height="0.2000" fill="#000000"/><rect x="88.0000" y="47.2000" width="0.6000" height="0.2000" fill="#000000"/><rect x="80.6000" y="47.4000" width="0.4000" height="0.2000" fill="#000000"/><rect x="85.6000" y="47.4000" width="0.6000" height="0.2000" fill="#000000"/><rect x="87.8000" y="47.4000" width="0.6000" height="0.2000" fill="#000000"/><rect x="93.0000" y="47.4000" width="0.6000" height="0.2000" fill="#000000"/><rect x="29.0000" y="47.6000" width="1.8000" height="0.2000" fill="#000000"/><rect x="80.4000" y="47.6000" width="0.6000" height="0.2000" fill="#000000"/><rect x="85.4000" y="47.6000" width="0.6000" height="0.2000" fill="#000000"/><rect x="87.6000" y="47.6000" width="0.6000" height="0.2000" fill="#000000"/><rect x="92.8000" y="47.6000" width="0.6000" height="0.2000" fill="#000000"/><rect x="8.0000" y="47.8000" width="10.0000" height="0.2000" fill="#000000"/><rect x="26.4000" y="47.8000" width="6.6000" height="0.2000" fill="#000000"/><rect x="39.0000" y="47.8000" width="10.0000" height="0.2000" fill="#000000"/><rect x="57.2000" y="47.8000" width="10.6000" height="0.2000" fill="#000000"/><rect x="69.4000" y="47.8000" width="12.4000" height="0.2000" fill="#000000"/><rect x="85.4000" y="47.8000" width="0.4000" height="0.2000" fill="#000000"/><rect x="87.4000" y="47.8000" width="0.6000" height="0.2000" fill="#000000"/><rect x="92.6000" y="47.8000" width="0.6000" height="0.2000" fill="#000000"/><rect x="7.8000" y="48.0000" width="11.2000" height="0.2000" fill="#000000"/><rect x="25.4000" y="48.0000" width="8.8000" height="0.2000" fill="#000000"/><rect x="38.8000" y="48.0000" width="11.2000" height="0.2000" fill="#000000"/><rect x="56.2000" y="48.0000" width="11.8000" height="0.2000" fill="#000000"/><rect x="69.2000" y="48.0000" width="12.6000" height="0.2000" fill="#000000"/><rect x="85.2000" y="48.0000" width="0.6000" height="0.2000" fill="#000000"/><rect x="87.2000" y="48.0000" width="0.6000" height="0.2000" fill="#000000"/><rect x="92.4000" y="48.0000" width="0.6000" height="0.2000" fill="#000000"/><rect x="7.8000" y="48.2000" width="11.8000" height="0.2000" fill="#000000"/><rect x="24.8000" y="48.2000" width="10.4000" height="0.2000" fill="#000000"/><rect x="38.8000" y="48.2000" width="12.0000" height="0.2000" fill="#000000"/><rect x="55.6000" y="48.2000" width="12.4000" height="0.2000" fill="#000000"/><rect x="69.0000" y="48.2000" width="12.8000" height="1.0000" fill="#000000"/><rect x="85.0000" y="48.2000" width="0.6000" height="0.2000" fill="#000000"/><rect x="87.0000" y="48.2000" width="0.6000" height="0.4000" fill="#000000"/><rect x="92.2000" y="48.2000" width="0.6000" height="0.2000" fill="#000000"/><rect x="7.6000" y="48.4000" width="12.6000" height="0.2000" fill="#000000"/><rect x="24.2000" y="48.4000" width="11.6000" height="0.2000" fill="#000000"/><rect x="38.8000" y="48.4000" width="12.4000" height="0.2000" fill="#000000"/><rect x="55.2000" y="48.4000" width="12.8000" height="0.2000" fill="#000000"/><rect x="84.8000" y="48.4000" width="0.6000" height="0.2000" fill="#000000"/><rect x="92.0000" y="48.4000" width="0.6000" height="0.4000" fill="#000000"/><rect x="7.6000" y="48.6000" width="13.0000" height="0.2000" fill="#000000"/><rect x="23.8000" y="48.6000" width="12.4000" height="0.2000" fill="#000000"/><rect x="38.8000" y="48.6000" width="12.8000" height="0.2000" fill="#000000"/><rect x="54.8000" y="48.6000" width="13.2000" height="0.2000" fill="#000000"/><rect x="84.6000" y="48.6000" width="0.6000" height="0.2000" fill="#000000"/><rect x="86.8000" y="48.6000" width="0.6000" height="0.2000" fill="#000000"/><rect x="7.6000" y="48.8000" width="13.2000" height="0.2000" fill="#000000"/><rect x="23.6000" y="48.8000" width="13.0000" height="0.2000" fill="#000000"/><rect x="38.8000" y="48.8000" width="13.2000" height="0.2000" fill="#000000"/><rect x="54.6000" y="48.8000" width="13.4000" height="0.2000" fill="#000000"/><rect x="84.4000" y="48.8000" width="0.6000" height="0.2000" fill="#000000"/><rect x="86.6000" y="48.8000" width="0.6000" height="0.2000" fill="#000000"/><rect x="91.8000" y="48.8000" width="0.6000" height="0.2000" fill="#000000"/><rect x="7.6000" y="49.0000" width="13.4000" height="0.2000" fill="#000000"/><rect x="23.2000" y="49.0000" width="13.8000" height="0.2000" fill="#000000"/><rect x="38.8000" y="49.0000" width="13.4000" height="0.2000" fill="#000000"/><rect x="54.4000" y="49.0000" width="13.4000" height="0.2000" fill="#000000"/><rect x="84.2000" y="49.0000" width="0.6000" height="0.2000" fill="#000000"/><rect x="86.4000" y="49.0000" width="0.6000" height="0.2000" fill="#000000"/><rect x="91.6000" y="49.0000" width="0.6000" height="0.2000" fill="#000000"/><rect x="7.6000" y="49.2000" width="3.6000" height="2.2000" fill="#000000"/><rect x="16.2000" y="49.2000" width="5.0000" height="0.2000" fill="#000000"/><rect x="23.2000" y="49.2000" width="4.8000" height="0.2000" fill="#000000"/><rect x="32.0000" y="49.2000" width="5.2000" height="0.2000" fill="#000000"/><rect x="38.8000" y="49.2000" width="3.4000" height="2.4000" fill="#000000"/><rect x="47.4000" y="49.2000" width="5.0000" height="0.2000" fill="#000000"/><rect x="54.2000" y="49.2000" width="5.0000" height="0.2000" fill="#000000"/><rect x="69.0000" y="49.2000" width="3.6000" height="0.4000" fill="#000000"/><rect x="84.2000" y="49.2000" width="0.4000" height="0.2000" fill="#000000"/><rect x="86.2000" y="49.2000" width="0.6000" height="0.2000" fill="#000000"/><rect x="91.4000" y="49.2000" width="0.6000" height="0.2000" fill="#000000"/><rect x="17.2000" y="49.4000" width="4.2000" height="0.2000" fill="#000000"/><rect x="23.0000" y="49.4000" width="4.2000" height="0.2000" fill="#000000"/><rect x="32.8000" y="49.4000" width="4.6000" height="0.2000" fill="#000000"/><rect x="48.2000" y="49.4000" width="4.4000" height="0.2000" fill="#000000"/><rect x="54.0000" y="49.4000" width="4.2000" height="0.2000" fill="#000000"/><rect x="84.0000" y="49.4000" width="0.6000" height="0.2000" fill="#000000"/><rect x="86.0000" y="49.4000" width="0.6000" height="0.2000" fill="#000000"/><rect x="91.2000" y="49.4000" width="0.6000" height="0.2000" fill="#000000"/><rect x="17.6000" y="49.6000" width="4.0000" height="0.2000" fill="#000000"/><rect x="22.8000" y="49.6000" width="4.0000" height="0.2000" fill="#000000"/><rect x="33.4000" y="49.6000" width="4.2000" height="0.2000" fill="#000000"/><rect x="48.8000" y="49.6000" width="3.8000" height="0.2000" fill="#000000"/><rect x="54.0000" y="49.6000" width="3.8000" height="0.2000" fill="#000000"/><rect x="60.6000" y="49.6000" width="6.8000" height="0.2000" fill="#000000"/><rect x="69.0000" y="49.6000" width="12.0000" height="0.2000" fill="#000000"/><rect x="83.8000" y="49.6000" width="0.6000" height="0.2000" fill="#000000"/><rect x="85.8000" y="49.6000" width="0.6000" height="0.4000" fill="#000000"/><rect x="91.0000" y="49.6000" width="0.6000" height="0.2000" fill="#000000"/><rect x="17.8000" y="49.8000" width="3.8000" height="0.2000" fill="#000000"/><rect x="22.8000" y="49.8000" width="3.8000" height="0.2000" fill="#000000"/><rect x="33.8000" y="49.8000" width="3.8000" height="0.2000" fill="#000000"/><rect x="49.0000" y="49.8000" width="3.6000" height="0.2000" fill="#000000"/><rect x="54.0000" y="49.8000" width="3.6000" height="0.2000" fill="#000000"/><rect x="60.2000" y="49.8000" width="7.6000" height="0.4000" fill="#000000"/><rect x="69.0000" y="49.8000" width="12.4000" height="1.2000" fill="#000000"/><rect x="83.6000" y="49.8000" width="0.6000" height="0.2000" fill="#000000"/><rect x="90.8000" y="49.8000" width="0.6000" height="0.2000" fill="#000000"/><rect x="18.0000" y="50.0000" width="3.6000" height="0.2000" fill="#000000"/><rect x="22.8000" y="50.0000" width="3.6000" height="1.0000" fill="#000000"/><rect x="34.0000" y="50.0000" width="3.6000" height="0.4000" fill="#000000"/><rect x="49.2000" y="50.0000" width="3.6000" height="0.8000" fill="#000000"/><rect x="53.8000" y="50.0000" width="3.6000" height="0.8000" fill="#000000"/><rect x="83.4000" y="50.0000" width="0.6000" height="0.2000" fill="#000000"/><rect x="85.6000" y="50.0000" width="0.6000" height="0.2000" fill="#000000"/><rect x="90.6000" y="50.0000" width="0.8000" height="0.2000" fill="#000000"/><rect x="18.2000" y="50.2000" width="3.4000" height="0.2000" fill="#000000"/><rect x="60.2000" y="50.2000" width="7.8000" height="0.8000" fill="#000000"/><rect x="83.2000" y="50.2000" width="0.6000" height="0.2000" fill="#000000"/><rect x="85.4000" y="50.2000" width="0.6000" height="0.2000" fill="#000000"/><rect x="90.6000" y="50.2000" width="0.6000" height="0.2000" fill="#000000"/><rect x="18.0000" y="50.4000" width="3.6000" height="0.4000" fill="#000000"/><rect x="34.2000" y="50.4000" width="3.4000" height="0.2000" fill="#000000"/><rect x="83.0000" y="50.4000" width="0.6000" height="0.2000" fill="#000000"/><rect x="85.2000" y="50.4000" width="0.6000" height="0.2000" fill="#000000"/><rect x="90.4000" y="50.4000" width="0.6000" height="0.2000" fill="#000000"/><rect x="34.0000" y="50.6000" width="3.6000" height="0.4000" fill="#000000"/><rect x="82.8000" y="50.6000" width="0.6000" height="0.4000" fill="#000000"/><rect x="85.0000" y="50.6000" width="0.6000" height="0.2000" fill="#000000"/><rect x="90.2000" y="50.6000" width="0.6000" height="0.2000" fill="#000000"/><rect x="17.8000" y="50.8000" width="3.8000" height="0.2000" fill="#000000"/><rect x="49.0000" y="50.8000" width="3.8000" height="0.2000" fill="#000000"/><rect x="53.8000" y="50.8000" width="3.8000" height="0.2000" fill="#000000"/><rect x="84.8000" y="50.8000" width="0.6000" height="0.2000" fill="#000000"/><rect x="90.0000" y="50.8000" width="0.6000" height="0.2000" fill="#000000"/><rect x="17.6000" y="51.0000" width="4.0000" height="0.2000" fill="#000000"/><rect x="22.8000" y="51.0000" width="3.8000" height="0.2000" fill="#000000"/><rect x="33.8000" y="51.0000" width="3.8000" height="0.2000" fill="#000000"/><rect x="48.8000" y="51.0000" width="3.8000" height="0.2000" fill="#000000"/><rect x="54.0000" y="51.0000" width="3.8000" height="0.2000" fill="#000000"/><rect x="60.4000" y="51.0000" width="7.6000" height="0.2000" fill="#000000"/><rect x="69.0000" y="51.0000" width="12.0000" height="0.2000" fill="#000000"/><rect x="82.6000" y="51.0000" width="0.6000" height="0.2000" fill="#000000"/><rect x="84.6000" y="51.0000" width="0.6000" height="0.2000" fill="#000000"/><rect x="89.8000" y="51.0000" width="0.6000" height="0.2000" fill="#000000"/><rect x="17.2000" y="51.2000" width="4.4000" height="0.2000" fill="#000000"/><rect x="23.0000" y="51.2000" width="4.0000" height="0.2000" fill="#000000"/><rect x="33.4000" y="51.2000" width="4.0000" height="0.2000" fill="#000000"/><rect x="48.4000" y="51.2000" width="4.2000" height="0.2000" fill="#000000"/><rect x="54.0000" y="51.2000" width="4.0000" height="0.2000" fill="#000000"/><rect x="64.4000" y="51.2000" width="3.6000" height="0.4000" fill="#000000"/><rect x="69.0000" y="51.2000" width="3.6000" height="0.4000" fill="#000000"/><rect x="82.4000" y="51.2000" width="0.6000" height="0.2000" fill="#000000"/><rect x="84.4000" y="51.2000" width="0.8000" height="0.2000" fill="#000000"/><rect x="89.6000" y="51.2000" width="0.6000" height="0.2000" fill="#000000"/><rect x="7.6000" y="51.4000" width="3.4000" height="0.2000" fill="#000000"/><rect x="16.4000" y="51.4000" width="5.0000" height="0.2000" fill="#000000"/><rect x="23.2000" y="51.4000" width="4.6000" height="0.2000" fill="#000000"/><rect x="32.8000" y="51.4000" width="4.6000" height="0.2000" fill="#000000"/><rect x="47.6000" y="51.4000" width="5.0000" height="0.2000" fill="#000000"/><rect x="54.2000" y="51.4000" width="4.6000" height="0.2000" fill="#000000"/><rect x="82.2000" y="51.4000" width="0.6000" height="0.2000" fill="#000000"/><rect x="84.4000" y="51.4000" width="0.6000" height="0.2000" fill="#000000"/><rect x="89.4000" y="51.4000" width="0.6000" height="0.4000" fill="#000000"/><rect x="7.6000" y="51.6000" width="13.6000" height="0.4000" fill="#000000"/><rect x="23.4000" y="51.6000" width="13.8000" height="0.2000" fill="#000000"/><rect x="38.8000" y="51.6000" width="13.6000" height="0.2000" fill="#000000"/><rect x="54.2000" y="51.6000" width="13.8000" height="0.2000" fill="#000000"/><rect x="69.0000" y="51.6000" width="13.6000" height="0.2000" fill="#000000"/><rect x="84.2000" y="51.6000" width="0.6000" height="0.2000" fill="#000000"/><rect x="23.6000" y="51.8000" width="13.4000" height="0.2000" fill="#000000"/><rect x="38.8000" y="51.8000" width="13.4000" height="0.2000" fill="#000000"/><rect x="54.4000" y="51.8000" width="13.6000" height="0.2000" fill="#000000"/><rect x="69.0000" y="51.8000" width="13.4000" height="0.2000" fill="#000000"/><rect x="84.0000" y="51.8000" width="0.6000" height="0.2000" fill="#000000"/><rect x="89.2000" y="51.8000" width="0.6000" height="0.2000" fill="#000000"/><rect x="7.6000" y="52.0000" width="13.2000" height="0.2000" fill="#000000"/><rect x="24.0000" y="52.0000" width="12.8000" height="0.2000" fill="#000000"/><rect x="38.8000" y="52.0000" width="13.2000" height="0.2000" fill="#000000"/><rect x="54.8000" y="52.0000" width="13.2000" height="0.2000" fill="#000000"/><rect x="69.0000" y="52.0000" width="13.2000" height="0.4000" fill="#000000"/><rect x="83.8000" y="52.0000" width="0.6000" height="0.2000" fill="#000000"/><rect x="89.0000" y="52.0000" width="0.6000" height="0.2000" fill="#000000"/><rect x="7.6000" y="52.2000" width="13.0000" height="0.2000" fill="#000000"/><rect x="24.2000" y="52.2000" width="12.2000" height="0.2000" fill="#000000"/><rect x="38.8000" y="52.2000" width="12.8000" height="0.2000" fill="#000000"/><rect x="55.0000" y="52.2000" width="13.0000" height="0.2000" fill="#000000"/><rect x="83.6000" y="52.2000" width="0.6000" height="0.2000" fill="#000000"/><rect x="88.8000" y="52.2000" width="0.6000" height="0.2000" fill="#000000"/><rect x="7.6000" y="52.4000" width="12.6000" height="0.2000" fill="#000000"/><rect x="24.8000" y="52.4000" width="11.2000" height="0.2000" fill="#000000"/><rect x="38.8000" y="52.4000" width="12.4000" height="0.2000" fill="#000000"/><rect x="55.4000" y="52.4000" width="12.4000" height="0.2000" fill="#000000"/><rect x="69.0000" y="52.4000" width="13.0000" height="0.4000" fill="#000000"/><rect x="83.4000" y="52.4000" width="0.6000" height="0.2000" fill="#000000"/><rect x="88.6000" y="52.4000" width="0.6000" height="0.2000" fill="#000000"/><rect x="7.8000" y="52.6000" width="11.6000" height="0.2000" fill="#000000"/><rect x="25.4000" y="52.6000" width="10.0000" height="0.2000" fill="#000000"/><rect x="38.8000" y="52.6000" width="11.8000" height="0.2000" fill="#000000"/><rect x="56.0000" y="52.6000" width="11.8000" height="0.2000" fill="#000000"/><rect x="83.2000" y="52.6000" width="0.6000" height="0.4000" fill="#000000"/><rect x="88.4000" y="52.6000" width="0.6000" height="0.2000" fill="#000000"/><rect x="7.8000" y="52.8000" width="10.8000" height="0.2000" fill="#000000"/><rect x="26.4000" y="52.8000" width="8.0000" height="0.2000" fill="#000000"/><rect x="39.0000" y="52.8000" width="10.6000" height="0.2000" fill="#000000"/><rect x="56.8000" y="52.8000" width="10.8000" height="0.2000" fill="#000000"/><rect x="69.2000" y="52.8000" width="12.8000" height="0.2000" fill="#000000"/><rect x="88.2000" y="52.8000" width="0.6000" height="0.4000" fill="#000000"/><rect x="28.2000" y="53.0000" width="4.8000" height="0.2000" fill="#000000"/><rect x="75.6000" y="53.0000" width="0.8000" height="0.2000" fill="#000000"/><rect x="80.8000" y="53.0000" width="0.8000" height="0.2000" fill="#000000"/><rect x="83.0000" y="53.0000" width="0.6000" height="0.2000" fill="#000000"/><rect x="75.4000" y="53.2000" width="0.8000" height="0.2000" fill="#000000"/><rect x="80.6000" y="53.2000" width="0.6000" height="0.2000" fill="#000000"/><rect x="82.8000" y="53.2000" width="0.6000" height="0.2000" fill="#000000"/><rect x="88.0000" y="53.2000" width="0.6000" height="0.2000" fill="#000000"/><rect x="75.2000" y="53.4000" width="0.8000" height="0.2000" fill="#000000"/><rect x="80.4000" y="53.4000" width="0.6000" height="0.2000" fill="#000000"/><rect x="82.6000" y="53.4000" width="0.6000" height="0.2000" fill="#000000"/><rect x="87.8000" y="53.4000" width="0.6000" height="0.2000" fill="#000000"/><rect x="75.2000" y="53.6000" width="0.6000" height="0.2000" fill="#000000"/><rect x="80.2000" y="53.6000" width="0.8000" height="0.2000" fill="#000000"/><rect x="82.4000" y="53.6000" width="0.6000" height="0.2000" fill="#000000"/><rect x="87.6000" y="53.6000" width="0.6000" height="0.2000" fill="#000000"/><rect x="75.0000" y="53.8000" width="0.6000" height="0.2000" fill="#000000"/><rect x="80.2000" y="53.8000" width="0.6000" height="0.2000" fill="#000000"/><rect x="82.2000" y="53.8000" width="0.6000" height="0.2000" fill="#000000"/><rect x="87.4000" y="53.8000" width="0.6000" height="0.2000" fill="#000000"/><rect x="74.8000" y="54.0000" width="0.6000" height="0.2000" fill="#000000"/><rect x="80.0000" y="54.0000" width="0.6000" height="0.2000" fill="#000000"/><rect x="82.0000" y="54.0000" width="0.6000" height="0.2000" fill="#000000"/><rect x="87.2000" y="54.0000" width="0.6000" height="0.2000" fill="#000000"/><rect x="74.6000" y="54.2000" width="0.6000" height="0.2000" fill="#000000"/><rect x="79.8000" y="54.2000" width="0.6000" height="0.2000" fill="#000000"/><rect x="81.8000" y="54.2000" width="0.8000" height="0.2000" fill="#000000"/><rect x="87.0000" y="54.2000" width="0.6000" height="0.2000" fill="#000000"/><rect x="74.4000" y="54.4000" width="0.6000" height="0.2000" fill="#000000"/><rect x="79.6000" y="54.4000" width="0.6000" height="0.2000" fill="#000000"/><rect x="81.8000" y="54.4000" width="0.6000" height="0.2000" fill="#000000"/><rect x="86.8000" y="54.4000" width="0.8000" height="0.2000" fill="#000000"/><rect x="74.2000" y="54.6000" width="0.6000" height="0.2000" fill="#000000"/><rect x="79.4000" y="54.6000" width="0.6000" height="0.2000" fill="#000000"/><rect x="81.6000" y="54.6000" width="0.6000" height="0.2000" fill="#000000"/><rect x="86.8000" y="54.6000" width="0.6000" height="0.2000" fill="#000000"/><rect x="74.0000" y="54.8000" width="0.8000" height="0.2000" fill="#000000"/><rect x="79.2000" y="54.8000" width="0.6000" height="0.2000" fill="#000000"/><rect x="81.4000" y="54.8000" width="0.6000" height="0.2000" fill="#000000"/><rect x="86.6000" y="54.8000" width="0.6000" height="0.2000" fill="#000000"/><rect x="74.0000" y="55.0000" width="0.6000" height="0.2000" fill="#000000"/><rect x="79.0000" y="55.0000" width="0.8000" height="0.2000" fill="#000000"/><rect x="81.2000" y="55.0000" width="0.6000" height="0.2000" fill="#000000"/><rect x="86.4000" y="55.0000" width="0.6000" height="0.2000" fill="#000000"/><rect x="73.8000" y="55.2000" width="0.6000" height="0.2000" fill="#000000"/><rect x="79.0000" y="55.2000" width="0.6000" height="0.2000" fill="#000000"/><rect x="81.0000" y="55.2000" width="0.6000" height="0.2000" fill="#000000"/><rect x="86.2000" y="55.2000" width="0.6000" height="0.2000" fill="#000000"/><rect x="73.6000" y="55.4000" width="0.6000" height="0.2000" fill="#000000"/><rect x="78.8000" y="55.4000" width="0.6000" height="0.2000" fill="#000000"/><rect x="80.8000" y="55.4000" width="0.6000" height="0.2000" fill="#000000"/><rect x="86.0000" y="55.4000" width="0.6000" height="0.2000" fill="#000000"/><rect x="73.4000" y="55.6000" width="0.6000" height="0.2000" fill="#000000"/><rect x="78.6000" y="55.6000" width="0.6000" height="0.2000" fill="#000000"/><rect x="80.6000" y="55.6000" width="0.8000" height="0.2000" fill="#000000"/><rect x="85.8000" y="55.6000" width="0.6000" height="0.2000" fill="#000000"/><rect x="73.2000" y="55.8000" width="0.6000" height="0.2000" fill="#000000"/><rect x="78.4000" y="55.8000" width="0.6000" height="0.2000" fill="#000000"/><rect x="80.6000" y="55.8000" width="0.6000" height="0.2000" fill="#000000"/><rect x="85.6000" y="55.8000" width="0.8000" height="0.2000" fill="#000000"/><rect x="73.0000" y="56.0000" width="0.6000" height="0.2000" fill="#000000"/><rect x="78.2000" y="56.0000" width="0.6000" height="0.2000" fill="#000000"/><rect x="80.4000" y="56.0000" width="0.6000" height="0.2000" fill="#000000"/><rect x="85.6000" y="56.0000" width="0.6000" height="0.2000" fill="#000000"/><rect x="72.8000" y="56.2000" width="0.8000" height="0.2000" fill="#000000"/><rect x="78.0000" y="56.2000" width="0.6000" height="0.2000" fill="#000000"/><rect x="80.2000" y="56.2000" width="0.6000" height="0.2000" fill="#000000"/><rect x="85.4000" y="56.2000" width="0.6000" height="0.2000" fill="#000000"/><rect x="72.8000" y="56.4000" width="0.6000" height="0.2000" fill="#000000"/><rect x="77.8000" y="56.4000" width="0.8000" height="0.2000" fill="#000000"/><rect x="80.0000" y="56.4000" width="0.6000" height="0.2000" fill="#000000"/><rect x="85.2000" y="56.4000" width="0.6000" height="0.2000" fill="#000000"/><rect x="72.6000" y="56.6000" width="0.6000" height="0.2000" fill="#000000"/><rect x="77.8000" y="56.6000" width="0.6000" height="0.2000" fill="#000000"/><rect x="79.8000" y="56.6000" width="0.6000" height="0.2000" fill="#000000"/><rect x="85.0000" y="56.6000" width="0.6000" height="0.2000" fill="#000000"/><rect x="72.4000" y="56.8000" width="0.6000" height="0.2000" fill="#000000"/><rect x="77.6000" y="56.8000" width="0.6000" height="0.2000" fill="#000000"/><rect x="79.6000" y="56.8000" width="0.8000" height="0.2000" fill="#000000"/><rect x="84.8000" y="56.8000" width="0.6000" height="0.2000" fill="#000000"/><rect x="72.2000" y="57.0000" width="5.8000" height="0.2000" fill="#000000"/><rect x="79.6000" y="57.0000" width="5.6000" height="0.4000" fill="#000000"/><rect x="72.2000" y="57.2000" width="5.6000" height="0.2000" fill="#000000"/></svg>