<svg width="2000" height="2000" viewBox="0 0 2000 2000" fill="none" xmlns="http://www.w3.org/2000/svg">
<rect width="2000" height="2000" fill="white"/>
<path d="M998.217 1249.84C997.989 1175.95 1057.54 1116.34 1131.92 1116.22C1204.49 1116.33 1264.09 1175.94 1265.55 1249.84C1264.1 1322.91 1204.5 1382.52 1131.92 1383.55C1057.54 1382.52 997.994 1322.91 998.217 1249.84ZM1131.93 1334.3C1172.08 1333.68 1205.33 1295.94 1205.74 1249.84C1205.33 1202.86 1172.08 1165.13 1131.93 1165.39C1090.04 1165.12 1056.71 1202.85 1058.04 1249.84C1056.71 1295.94 1090.04 1333.67 1131.93 1334.3ZM1416.79 1172.44V1376.52H1360.55V1172.44H1279.62V1126.78H1494.2V1172.44H1416.79ZM1560.99 1320.16L1539.93 1376.52H1473.15L1578.64 1126.78H1648.96L1751 1376.52H1684.21L1663.11 1320.16H1560.99ZM1613.83 1278H1648.96L1613.83 1186.5L1578.64 1278H1613.83ZM382.649 1172.44V1376.52H326.372V1172.44H249V1126.78H460.058V1172.44H382.649ZM474.132 1249.84C474.243 1175.95 533.764 1116.34 607.734 1116.22C680.75 1116.33 740.36 1175.94 741.436 1249.84C740.36 1322.91 680.75 1382.52 607.734 1383.55C533.764 1382.52 474.238 1322.91 474.132 1249.84ZM607.734 1334.3C648.364 1333.68 681.582 1295.94 681.619 1249.84C681.576 1202.86 648.364 1165.13 607.734 1165.39C566.255 1165.12 532.979 1202.85 533.949 1249.84C532.979 1295.94 566.255 1333.67 607.734 1334.3ZM868.07 1376.52H896.18V1281.51L994.699 1126.78H931.406L868.07 1232.25L808.253 1126.78H741.441L839.96 1281.51V1376.52H868.07Z" fill="#1F1F1F"/>
<path d="M693.79 808.527C693.79 914.133 831.107 1000.06 999.886 1000.06C1168.66 1000.06 1305.98 914.133 1305.98 808.527C1305.98 702.911 1168.66 617 999.883 617C831.104 617 693.79 702.911 693.79 808.527ZM703.183 808.527C703.183 708.11 836.28 626.409 999.886 626.409C1163.49 626.409 1296.59 708.11 1296.59 808.527C1296.59 908.964 1163.49 990.663 999.886 990.663C836.28 990.661 703.183 908.967 703.183 808.527Z" fill="#1F1F1F"/>
<path d="M970.962 651.818C899.321 656.192 847.286 675.18 838.417 700.197C837.514 702.717 837.048 705.374 837.041 708.051C837.041 712.271 838.234 716.491 840.601 720.525C850.543 737.466 881.406 751.436 925.326 758.929L929.976 759.69L930.755 755.045C937.964 711.069 953.789 676.488 974.189 660.161L985.747 650.899L970.962 651.818ZM848.709 715.789C847.178 713.185 846.424 710.616 846.424 708.084C846.424 706.488 846.699 704.928 847.267 703.341C854.037 684.231 900.028 667.539 958.779 662.155C942.02 681.112 929.133 711.661 922.409 748.775C884.231 741.711 856.78 729.547 848.709 715.789ZM957.864 757.856L956.945 762.966L962.128 763.36C974.419 764.278 987.125 764.774 999.874 764.774C1012.63 764.774 1025.35 764.278 1037.64 763.36L1042.81 762.966L1041.89 757.856C1034.83 718.175 1019.11 694.471 999.881 694.471C980.639 694.471 964.927 718.175 957.864 757.856ZM999.883 703.865C1013.03 703.865 1025.16 723.55 1031.56 754.279C1021.16 754.958 1010.58 755.381 999.874 755.381C989.187 755.381 978.594 754.958 968.21 754.279C974.586 723.55 986.74 703.865 999.883 703.865ZM1025.57 660.166C1045.96 676.493 1061.8 711.078 1069.01 755.05L1069.78 759.695L1074.42 758.934C1118.36 751.44 1149.24 737.466 1159.15 720.528C1163 714.018 1163.74 706.988 1161.35 700.204C1152.49 675.19 1100.45 656.202 1028.81 651.822L1014.05 650.904L1025.57 660.166ZM1041.01 662.155C1099.74 667.539 1145.73 684.261 1152.48 703.341C1153.07 704.928 1153.34 706.488 1153.34 708.084C1153.34 710.616 1152.57 713.185 1151.08 715.789C1142.98 729.545 1115.52 741.711 1077.36 748.775C1070.63 711.663 1057.77 681.115 1041.01 662.155ZM793.086 718.633C760.889 745.603 743.873 777.642 743.873 811.305C743.873 890.493 840.434 957.428 968.468 966.966L982.769 968.04L971.88 958.738C943.83 934.741 926.411 877.805 926.411 810.14L926.704 794.153L922.778 793.355C855.432 781.284 807.521 752.967 800.699 721.256L799.067 713.643L793.086 718.633ZM753.276 811.305C753.276 782.44 767.356 754.737 793.793 730.677C806.109 762.719 852.131 789.412 917.182 801.832C917.1 805.5 917.027 810.14 917.027 810.14C917.027 872.881 931.915 927.065 956.471 956.298C839.809 943.85 753.276 882.915 753.276 811.305ZM954.038 802.842L954.01 804.546C954.01 867.442 973.731 914.894 999.883 914.894C1026.03 914.894 1045.75 867.442 1045.75 804.546L1045.69 797.76L1040.64 798.192C1027.34 799.357 1013.65 799.934 999.888 799.934C986.13 799.934 972.416 799.357 959.15 798.192L954.088 797.734L954.038 802.842ZM1036.3 807.883C1035.59 866.404 1017.16 905.508 999.883 905.508C982.593 905.508 964.155 866.404 963.467 807.883C975.41 808.764 987.609 809.313 999.883 809.313C1012.18 809.313 1024.34 808.764 1036.3 807.883ZM1199.05 721.256C1192.24 752.967 1144.32 781.282 1076.99 793.355L1073.05 794.087L1073.36 810.138C1073.36 877.803 1055.93 934.741 1027.89 958.736L1017 968.037L1031.28 966.964C1159.33 957.425 1255.89 890.49 1255.89 811.302C1255.89 777.64 1238.86 745.6 1206.66 718.63L1200.7 713.64L1199.05 721.256ZM1205.96 730.677C1232.41 754.737 1246.5 782.44 1246.5 811.305C1246.5 882.915 1159.97 943.85 1043.3 956.298C1067.86 927.065 1082.74 872.881 1082.74 810.14C1082.74 810.14 1082.65 805.497 1082.59 801.832C1147.62 789.412 1193.64 762.717 1205.96 730.677Z" fill="#1F1F1F"/>
<path d="M1202.38 697.078C1202.81 698.271 1203.21 699.487 1203.52 700.711C1205.29 707.746 1204.92 714.655 1202.63 721.387C1233.17 746.577 1251.18 777.645 1251.18 811.307C1251.18 895.328 1138.67 963.456 999.884 963.456C861.092 963.456 748.586 895.328 748.586 811.307C748.586 777.673 766.612 746.58 797.12 721.387C794.845 714.655 794.479 707.746 796.249 700.711C796.616 699.376 797.104 698.077 797.707 696.832C756.026 726.528 730.754 765.445 730.754 808.069C730.754 901.135 851.238 976.573 999.881 976.573C1148.51 976.573 1269.01 901.135 1269.01 808.069C1269.01 765.535 1243.84 726.706 1202.38 697.078Z" fill="#1F1F1F"/>
<path d="M1037.27 758.683C1025.41 759.573 1012.91 760.059 999.874 760.059C986.848 760.059 974.355 759.573 962.494 758.683H962.457L954.705 764.314C969.006 765.561 984.108 766.268 999.881 766.268C1015.66 766.268 1030.76 765.561 1045.07 764.314L1037.27 758.683ZM1174.74 699.645C1165.3 668.42 1087.42 645.489 999.883 645.489C912.364 645.489 834.488 668.425 825.041 699.645C816.841 726.732 861.604 751.802 932.225 761.745L926.089 754.275C868.961 744.553 835.005 723.823 842.839 701.782C852.333 675.021 921.292 655.643 999.876 655.643C1078.46 655.643 1147.43 675.026 1156.92 701.782C1164.74 723.825 1130.8 744.555 1073.66 754.275L1067.55 761.745C1138.14 751.802 1182.94 726.732 1174.74 699.645Z" fill="#1F1F1F"/>
<path d="M962.588 758.682C969.147 722.237 983.375 699.462 999.876 699.462C1016.4 699.462 1030.61 722.237 1037.18 758.682H1037.31L1044.98 764.25C1038.51 716.12 1020.77 685.363 999.888 685.363C978.993 685.363 961.262 716.12 954.794 764.25L962.464 758.682H962.588Z" fill="#1F1F1F"/>
<path d="M1047.31 791.521L1041.03 802.868C1041.03 803.694 1041.07 804.544 1041.07 805.406C1041.07 865.817 1022.6 911.623 999.879 911.623C977.138 911.623 958.702 865.813 958.702 805.406C958.702 804.453 958.721 803.506 958.74 802.593L952.456 791.521C952.271 796.126 952.179 800.734 952.181 805.343C952.181 873.834 973.536 925.717 999.888 925.717C1026.24 925.717 1047.61 873.834 1047.61 805.343C1047.6 800.734 1047.5 796.126 1047.31 791.521Z" fill="#1F1F1F"/>
<path d="M932.326 761.773C941.353 694.876 968.184 645.485 999.886 645.485C965.899 645.485 936.931 689.242 926.181 754.407L932.235 761.773H932.326Z" fill="#1F1F1F"/>
<path d="M1067.45 761.773H1067.52L1073.57 754.407C1062.84 689.242 1033.85 645.485 999.884 645.485C1031.59 645.489 1058.44 694.876 1067.45 761.773Z" fill="#1F1F1F"/>
<path d="M1077.79 797.941L1070.09 788.74H1070.02C1070.45 796.051 1070.7 803.481 1070.7 811.028C1070.7 902.455 1038.99 976.569 999.886 976.569C1043.73 976.569 1078.04 907.83 1078.04 811.028C1078.04 806.599 1077.95 802.255 1077.79 797.941Z" fill="#1F1F1F"/>
<path d="M929.088 811.03C929.088 803.483 929.335 796.053 929.757 788.743H929.706L921.982 797.915C921.819 802.285 921.733 806.657 921.726 811.03C921.726 907.833 956.06 976.571 999.888 976.571C960.799 976.571 929.088 902.455 929.088 811.03Z" fill="#1F1F1F"/>
<path d="M1202.63 721.385C1214.31 731.017 1224.16 741.528 1231.86 752.692C1229.19 734.937 1222.13 718.131 1211.31 703.801C1208.4 701.482 1205.42 699.241 1202.38 697.08C1202.81 698.273 1203.21 699.49 1203.51 700.713C1205.29 707.746 1204.92 714.652 1202.63 721.385ZM797.123 721.385C794.847 714.652 794.481 707.744 796.251 700.708C796.618 699.373 797.106 698.075 797.71 696.829C794.577 699.089 791.492 701.414 788.455 703.801C777.654 718.14 770.593 734.942 767.908 752.692C775.612 741.528 785.445 731.015 797.123 721.385Z" fill="#1F1F1F"/>
<path d="M698.486 808.527C698.486 705.358 833.417 621.704 999.886 621.704C1166.33 621.704 1301.26 705.358 1301.26 808.527C1301.26 911.717 1166.33 995.341 999.886 995.341C833.417 995.338 698.486 911.719 698.486 808.527ZM999.883 976.571C1148.51 976.571 1269.01 901.133 1269.01 808.067C1269.01 714.991 1148.51 639.527 999.883 639.527C851.238 639.527 730.747 714.995 730.747 808.067C730.747 901.133 851.241 976.571 999.883 976.571Z" fill="#1F1F1F"/>
<path d="M929.088 811.03C929.088 720.563 960.799 645.489 999.884 645.489C1038.99 645.489 1070.7 720.563 1070.7 811.03C1070.7 902.457 1038.99 976.571 999.884 976.571C960.78 976.571 929.088 902.455 929.088 811.03ZM999.884 925.717C1026.24 925.717 1047.61 873.835 1047.61 805.371C1047.61 734.319 1026.24 685.365 999.884 685.365C973.531 685.365 952.176 734.319 952.176 805.371C952.176 873.835 973.531 925.717 999.884 925.717Z" fill="#1F1F1F"/>
<path d="M796.251 700.709C804.02 669.954 897.964 625.191 999.884 625.191C1101.79 625.191 1192.51 657.174 1203.52 700.709C1215.84 749.506 1125.3 793.667 999.884 793.667C874.446 793.667 783.914 749.508 796.251 700.709ZM999.884 645.489C912.364 645.489 834.488 668.425 825.041 699.645C814.455 734.622 892.185 766.268 999.884 766.268C1107.6 766.268 1185.32 734.618 1174.74 699.645C1165.3 668.42 1087.42 645.489 999.884 645.489Z" fill="#1F1F1F"/>
<path d="M952.359 791.429L952.413 791.467L958.881 802.867C972.043 803.992 985.731 804.636 999.884 804.636C1014.1 804.636 1027.82 803.995 1041.07 802.839L1047.37 791.462L1047.4 791.424C1032.27 792.864 1016.4 793.662 999.888 793.662C984.019 793.671 968.158 792.926 952.359 791.429ZM1204.58 711.259C1202.97 746.15 1149.33 777.062 1070.06 788.712L1070.09 788.74L1077.82 797.981C1155.39 784.037 1206.42 749.785 1204.58 711.259ZM795.188 711.259C793.354 749.822 844.379 784.034 921.935 797.981L929.687 788.74L929.706 788.712C850.414 777.065 796.82 746.152 795.188 711.259Z" fill="#1F1F1F"/>
</svg>
